{
    "asset" : {
        "generator" : "Khronos glTF Blender I/O v1.7.33",
        "version" : "2.0"
    },
    "scene" : 0,
    "scenes" : [
        {
            "name" : "Scene",
            "nodes" : [
                0,
                1,
                2,
                3
            ]
        }
    ],
    "nodes" : [
        {
            "mesh" : 0,
            "name" : "Bottle",
            "scale" : [
                0.06086914241313934,
                0.06086914241313934,
                0.06086914241313934
            ]
        },
        {
            "mesh" : 1,
            "name" : "Inside_Liquid",
            "scale" : [
                0.04986969754099846,
                0.04986969754099846,
                0.04986969754099846
            ]
        },
        {
            "mesh" : 2,
            "name" : "Liquid",
            "scale" : [
                0.008450006134808064,
                0.006603637244552374,
                0.008450006134808064
            ],
            "translation" : [
                0,
                0.05123697221279144,
                0
            ]
        },
        {
            "mesh" : 3,
            "name" : "Bottle_Head",
            "scale" : [
                -0.009772728197276592,
                -0.01568111963570118,
                -0.009772728197276592
            ],
            "translation" : [
                0,
                0.0689929649233818,
                0
            ]
        }
    ],
    "materials" : [
        {
            "alphaMode" : "BLEND",
            "doubleSided" : true,
            "name" : "Glass_Shader",
            "pbrMetallicRoughness" : {
                "baseColorFactor" : [
                    1,
                    1,
                    1,
                    0.8500000238418579
                ],
                "metallicFactor" : 0,
                "roughnessFactor" : 0.5
            }
        },
        {
            "alphaMode" : "BLEND",
            "doubleSided" : true,
            "name" : "Glass_Shader.001",
            "pbrMetallicRoughness" : {
                "baseColorFactor" : [
                    1,
                    0.012718036770820618,
                    0.8733330368995667,
                    1
                ],
                "metallicFactor" : 0,
                "roughnessFactor" : 0.5
            }
        }
    ],
    "meshes" : [
        {
            "name" : "Icosphere",
            "primitives" : [
                {
                    "attributes" : {
                        "POSITION" : 0,
                        "NORMAL" : 1,
                        "TEXCOORD_0" : 2
                    },
                    "indices" : 3,
                    "material" : 0
                }
            ]
        },
        {
            "name" : "Icosphere.001",
            "primitives" : [
                {
                    "attributes" : {
                        "POSITION" : 4,
                        "NORMAL" : 5,
                        "TEXCOORD_0" : 6
                    },
                    "indices" : 3,
                    "material" : 1
                }
            ]
        },
        {
            "name" : "Cylinder.001",
            "primitives" : [
                {
                    "attributes" : {
                        "POSITION" : 7,
                        "NORMAL" : 8,
                        "TEXCOORD_0" : 9
                    },
                    "indices" : 10,
                    "material" : 1
                }
            ]
        },
        {
            "name" : "Cylinder.003",
            "primitives" : [
                {
                    "attributes" : {
                        "POSITION" : 11,
                        "NORMAL" : 12,
                        "TEXCOORD_0" : 13
                    },
                    "indices" : 14,
                    "material" : 0
                }
            ]
        }
    ],
    "accessors" : [
        {
            "bufferView" : 0,
            "componentType" : 5126,
            "count" : 240,
            "max" : [
                0.9510578513145447,
                1,
                0.9999999403953552
            ],
            "min" : [
                -0.9510578513145447,
                -1,
                -0.9999999403953552
            ],
            "type" : "VEC3"
        },
        {
            "bufferView" : 1,
            "componentType" : 5126,
            "count" : 240,
            "type" : "VEC3"
        },
        {
            "bufferView" : 2,
            "componentType" : 5126,
            "count" : 240,
            "type" : "VEC2"
        },
        {
            "bufferView" : 3,
            "componentType" : 5123,
            "count" : 240,
            "type" : "SCALAR"
        },
        {
            "bufferView" : 4,
            "componentType" : 5126,
            "count" : 240,
            "max" : [
                0.9510578513145447,
                1,
                0.9999999403953552
            ],
            "min" : [
                -0.9510578513145447,
                -1,
                -0.9999999403953552
            ],
            "type" : "VEC3"
        },
        {
            "bufferView" : 5,
            "componentType" : 5126,
            "count" : 240,
            "type" : "VEC3"
        },
        {
            "bufferView" : 6,
            "componentType" : 5126,
            "count" : 240,
            "type" : "VEC2"
        },
        {
            "bufferView" : 7,
            "componentType" : 5126,
            "count" : 444,
            "max" : [
                1.0000001192092896,
                3.82464337348938,
                1
            ],
            "min" : [
                -1,
                -1,
                -1
            ],
            "type" : "VEC3"
        },
        {
            "bufferView" : 8,
            "componentType" : 5126,
            "count" : 444,
            "type" : "VEC3"
        },
        {
            "bufferView" : 9,
            "componentType" : 5126,
            "count" : 444,
            "type" : "VEC2"
        },
        {
            "bufferView" : 10,
            "componentType" : 5123,
            "count" : 756,
            "type" : "SCALAR"
        },
        {
            "bufferView" : 11,
            "componentType" : 5126,
            "count" : 696,
            "max" : [
                1.1864949464797974,
                1,
                1.1864949464797974
            ],
            "min" : [
                -1.1864949464797974,
                -1,
                -1.1864949464797974
            ],
            "type" : "VEC3"
        },
        {
            "bufferView" : 12,
            "componentType" : 5126,
            "count" : 696,
            "type" : "VEC3"
        },
        {
            "bufferView" : 13,
            "componentType" : 5126,
            "count" : 696,
            "type" : "VEC2"
        },
        {
            "bufferView" : 14,
            "componentType" : 5123,
            "count" : 1152,
            "type" : "SCALAR"
        }
    ],
    "bufferViews" : [
        {
            "buffer" : 0,
            "byteLength" : 2880,
            "byteOffset" : 0
        },
        {
            "buffer" : 0,
            "byteLength" : 2880,
            "byteOffset" : 2880
        },
        {
            "buffer" : 0,
            "byteLength" : 1920,
            "byteOffset" : 5760
        },
        {
            "buffer" : 0,
            "byteLength" : 480,
            "byteOffset" : 7680
        },
        {
            "buffer" : 0,
            "byteLength" : 2880,
            "byteOffset" : 8160
        },
        {
            "buffer" : 0,
            "byteLength" : 2880,
            "byteOffset" : 11040
        },
        {
            "buffer" : 0,
            "byteLength" : 1920,
            "byteOffset" : 13920
        },
        {
            "buffer" : 0,
            "byteLength" : 5328,
            "byteOffset" : 15840
        },
        {
            "buffer" : 0,
            "byteLength" : 5328,
            "byteOffset" : 21168
        },
        {
            "buffer" : 0,
            "byteLength" : 3552,
            "byteOffset" : 26496
        },
        {
            "buffer" : 0,
            "byteLength" : 1512,
            "byteOffset" : 30048
        },
        {
            "buffer" : 0,
            "byteLength" : 8352,
            "byteOffset" : 31560
        },
        {
            "buffer" : 0,
            "byteLength" : 8352,
            "byteOffset" : 39912
        },
        {
            "buffer" : 0,
            "byteLength" : 5568,
            "byteOffset" : 48264
        },
        {
            "buffer" : 0,
            "byteLength" : 2304,
            "byteOffset" : 53832
        }
    ],
    "buffers" : [
        {
            "byteLength" : 56136,
            "uri" : "data:application/octet-stream;base64,"
        }
    ]
}
